<?xml version="1.0" encoding="UTF-8" standalone="no"?>
<!-- Created with Inkscape (http://www.inkscape.org/) -->

<svg
   xmlns:dc="http://purl.org/dc/elements/1.1/"
   xmlns:cc="http://creativecommons.org/ns#"
   xmlns:rdf="http://www.w3.org/1999/02/22-rdf-syntax-ns#"
   xmlns:svg="http://www.w3.org/2000/svg"
   xmlns="http://www.w3.org/2000/svg"
   xmlns:sodipodi="http://sodipodi.sourceforge.net/DTD/sodipodi-0.dtd"
   xmlns:inkscape="http://www.inkscape.org/namespaces/inkscape"
   width="228.74216mm"
   height="50mm"
   viewBox="0 0 228.74215 50"
   version="1.1"
   id="svg8"
   inkscape:version="0.92.2 (5c3e80d, 2017-08-06)"
   sodipodi:docname="ego_digital_lg_md_sm.svg">
  <defs
     id="defs2" />
  <sodipodi:namedview
     id="base"
     pagecolor="#ffffff"
     bordercolor="#666666"
     borderopacity="1.0"
     inkscape:pageopacity="0.0"
     inkscape:pageshadow="2"
     inkscape:zoom="0.35"
     inkscape:cx="-586.10478"
     inkscape:cy="46.786501"
     inkscape:document-units="mm"
     inkscape:current-layer="layer1"
     showgrid="false"
     fit-margin-top="0"
     fit-margin-left="0"
     fit-margin-right="0"
     fit-margin-bottom="0"
     inkscape:window-width="1920"
     inkscape:window-height="1017"
     inkscape:window-x="-8"
     inkscape:window-y="-8"
     inkscape:window-maximized="1" />
  <metadata
     id="metadata5">
    <rdf:RDF>
      <cc:Work
         rdf:about="">
        <dc:format>image/svg+xml</dc:format>
        <dc:type
           rdf:resource="http://purl.org/dc/dcmitype/StillImage" />
        <dc:title></dc:title>
      </cc:Work>
    </rdf:RDF>
  </metadata>
  <g
     inkscape:label="Ebene 1"
     inkscape:groupmode="layer"
     id="layer1"
     transform="translate(-29.963438,-111.21226)">
    <g
       transform="matrix(0.52140906,0,0,-0.52140906,19.012805,188.82817)"
       inkscape:label="Logo-eGOdigital-2017-10-17-THE-04"
       id="g823">
      <g
         transform="translate(162.82,111.169)"
         id="g825">
        <path
           inkscape:connector-curvature="0"
           id="path827"
           style="fill:#231f20;fill-opacity:1;fill-rule:nonzero;stroke:none"
           d="m 0,0 v -14.317 c 0,-5.826 -0.458,-10.58 -1.369,-14.264 -0.913,-3.686 -2.616,-6.564 -5.106,-8.633 -2.492,-2.07 -5.948,-3.474 -10.369,-4.21 -4.422,-0.738 -10.143,-1.106 -17.16,-1.106 -6.317,0 -11.686,0.368 -16.107,1.106 -4.422,0.736 -8.001,2.21 -10.738,4.421 -2.737,2.21 -4.737,5.368 -6.001,9.474 -1.263,4.106 -1.895,9.492 -1.895,16.16 V 6.738 c 0,6.595 0.667,11.913 2.001,15.949 1.332,4.035 3.403,7.158 6.211,9.37 2.806,2.21 6.403,3.7 10.79,4.474 4.386,0.77 9.633,1.158 15.739,1.158 3.227,0 6.317,-0.019 9.264,-0.053 2.948,-0.036 5.684,-0.247 8.212,-0.631 2.526,-0.388 4.824,-1.054 6.895,-2 2.069,-0.948 3.824,-2.335 5.264,-4.16 1.438,-1.825 2.526,-4.158 3.263,-7 0.737,-2.842 1.069,-6.37 1,-10.58 H -15.16 c 0,2.877 -0.369,5.106 -1.105,6.684 -0.738,1.58 -1.861,2.719 -3.369,3.422 -1.51,0.702 -3.458,1.106 -5.843,1.21 -2.387,0.106 -5.229,0.158 -8.527,0.158 -4.422,0 -7.914,-0.227 -10.475,-0.684 -2.563,-0.456 -4.51,-1.333 -5.842,-2.632 -1.335,-1.298 -2.195,-3.123 -2.58,-5.474 -0.387,-2.352 -0.615,-5.421 -0.684,-9.211 v -18.107 c 0.069,-4.142 0.332,-7.422 0.789,-9.844 0.456,-2.42 1.37,-4.246 2.737,-5.474 1.37,-1.229 3.333,-2.017 5.896,-2.368 2.561,-0.352 5.948,-0.526 10.159,-0.526 3.579,0 6.58,0.087 9.001,0.262 2.422,0.176 4.369,0.754 5.843,1.738 1.474,0.981 2.508,2.509 3.105,4.58 0.596,2.069 0.895,4.964 0.895,8.684 v 2.843 H -35.057 V 0 H 0" />
      </g>
      <g
         transform="translate(42.84,96.45)"
         id="g829">
        <path
           inkscape:connector-curvature="0"
           id="path831"
           style="fill:#231f20;fill-opacity:1;fill-rule:nonzero;stroke:none"
           d="m 0,0 v 8.467 h 17.704 v 2.098 c 0,2.745 -0.221,4.881 -0.661,6.408 -0.44,1.528 -1.204,2.656 -2.292,3.38 -1.087,0.726 -2.524,1.153 -4.311,1.282 -1.786,0.129 -4.001,0.194 -6.642,0.194 -3.107,0 -5.607,-0.129 -7.496,-0.389 -1.892,-0.259 -3.341,-0.84 -4.351,-1.747 -1.009,-0.906 -1.683,-2.254 -2.019,-4.04 -0.338,-1.787 -0.532,-4.207 -0.583,-7.263 V -4.972 c 0.051,-2.797 0.219,-5.062 0.505,-6.798 0.284,-1.734 0.919,-3.081 1.903,-4.039 0.983,-0.958 2.42,-1.605 4.312,-1.942 1.889,-0.337 4.466,-0.505 7.729,-0.505 2.434,0 4.531,0.039 6.292,0.117 1.761,0.077 3.198,0.375 4.312,0.893 1.113,0.519 1.942,1.359 2.486,2.525 0.543,1.164 0.816,2.809 0.816,4.932 h 11.108 c 0.052,-3.107 -0.194,-5.71 -0.738,-7.807 -0.544,-2.097 -1.347,-3.819 -2.408,-5.165 -1.062,-1.347 -2.357,-2.37 -3.884,-3.07 -1.528,-0.698 -3.224,-1.19 -5.088,-1.476 -1.865,-0.283 -3.885,-0.439 -6.06,-0.466 -2.175,-0.024 -4.454,-0.038 -6.836,-0.038 -4.505,0 -8.377,0.285 -11.614,0.854 -3.237,0.571 -5.891,1.671 -7.962,3.301 -2.072,1.633 -3.601,3.937 -4.583,6.915 -0.985,2.978 -1.477,6.902 -1.477,11.769 V 8.39 c 0,4.92 0.467,8.894 1.399,11.924 0.932,3.03 2.408,5.36 4.428,6.991 2.019,1.632 4.661,2.72 7.924,3.263 3.262,0.544 7.224,0.816 11.885,0.816 5.179,0 9.4,-0.272 12.662,-0.816 3.263,-0.543 5.813,-1.58 7.653,-3.107 1.837,-1.527 3.093,-3.651 3.767,-6.37 0.672,-2.719 1.01,-6.227 1.01,-10.526 V 0 H 0" />
      </g>
      <g
         transform="translate(219.351,147.91)"
         id="g833">
        <path
           inkscape:connector-curvature="0"
           id="path835"
           style="fill:#231f20;fill-opacity:1;fill-rule:nonzero;stroke:none"
           d="m 0,0 c 4.211,-0.632 7.72,-1.948 10.528,-3.948 2.805,-2 4.895,-4.913 6.264,-8.738 1.368,-3.826 2.052,-8.895 2.052,-15.211 v -21.265 c 0,-6.316 -0.632,-11.441 -1.895,-15.37 -1.263,-3.932 -3.263,-6.984 -6,-9.16 -2.738,-2.176 -6.23,-3.649 -10.475,-4.421 -4.247,-0.771 -9.353,-1.158 -15.317,-1.158 -6.106,0 -11.283,0.352 -15.529,1.054 -4.247,0.699 -7.685,2.121 -10.316,4.262 -2.632,2.14 -4.546,5.194 -5.737,9.159 -1.195,3.964 -1.79,9.176 -1.79,15.634 v 21.265 c 0,6.106 0.561,11.053 1.684,14.843 1.121,3.79 2.982,6.719 5.579,8.79 2.596,2.07 6.035,3.457 10.317,4.158 4.281,0.702 9.544,1.054 15.792,1.054 C -9.158,0.948 -4.211,0.632 0,0 Z m -24.529,-12.738 c -2.386,-0.493 -4.194,-1.335 -5.422,-2.527 -1.228,-1.193 -2.036,-2.808 -2.421,-4.842 -0.386,-2.037 -0.615,-4.632 -0.684,-7.79 v -21.265 c 0,-3.932 0.245,-7.038 0.737,-9.318 0.49,-2.281 1.385,-4 2.684,-5.158 1.298,-1.158 3.141,-1.894 5.527,-2.21 2.386,-0.316 5.475,-0.474 9.265,-0.474 3.437,0 6.332,0.174 8.684,0.526 2.351,0.351 4.264,1.122 5.738,2.316 1.474,1.193 2.526,2.929 3.158,5.212 0.632,2.279 0.948,5.316 0.948,9.106 v 21.265 c 0.069,3.719 -0.229,6.632 -0.895,8.738 -0.668,2.105 -1.737,3.684 -3.211,4.737 -1.474,1.052 -3.405,1.719 -5.791,2 -2.386,0.28 -5.263,0.42 -8.631,0.42 -4.071,0 -7.3,-0.246 -9.686,-0.736" />
      </g>
      <g
         transform="translate(92.033,76.739)"
         id="g837">
        <path
           inkscape:connector-curvature="0"
           id="path839"
           style="fill:#231f20;fill-opacity:1;fill-rule:nonzero;stroke:none"
           d="m 0,0 c 0,-4.455 -3.612,-8.066 -8.067,-8.066 -4.455,0 -8.066,3.611 -8.066,8.066 0,4.455 3.611,8.067 8.066,8.067 C -3.612,8.067 0,4.455 0,0" />
      </g>
      <g
         transform="translate(305.382,101.227)"
         id="g841">
        <path
           inkscape:connector-curvature="0"
           id="path843"
           style="fill:#231f20;fill-opacity:1;fill-rule:nonzero;stroke:none"
           d="m 0,0 c -3.827,2.499 -6.482,3.124 -8.981,3.124 -5.778,0 -9.84,-5.076 -9.84,-15.698 0,-10.855 4.607,-15.775 9.216,-15.775 3.123,0 5.544,1.328 9.605,4.998 z m 0.391,-27.88 c -4.296,-4.061 -6.951,-5.311 -10.621,-5.311 -5.467,0 -13.667,5.311 -13.667,20.617 0,14.76 7.106,20.539 14.682,20.539 C -6.17,7.965 -3.671,6.95 0,4.529 V 22.725 H 4.998 V -32.41 H 1.171 l -0.78,4.53" />
      </g>
      <g
         transform="translate(321.549,108.411)"
         id="g845">
        <path
           inkscape:connector-curvature="0"
           id="path847"
           style="fill:#231f20;fill-opacity:1;fill-rule:nonzero;stroke:none"
           d="M 0,0 H 5.076 V -39.594 H 0 Z M -0.467,14.525 H 5.545 V 7.5748 h -6.012 z" />
      </g>
      <g
         transform="translate(359.035,103.882)"
         id="g849">
        <path
           inkscape:connector-curvature="0"
           id="path851"
           style="fill:#231f20;fill-opacity:1;fill-rule:nonzero;stroke:none"
           d="m 0,0 c -1.952,0.391 -3.827,0.703 -6.014,0.703 -7.028,0 -12.808,-4.374 -12.808,-17.259 0,-8.669 4.062,-13.901 9.84,-13.901 2.499,0 4.998,0.781 8.982,3.358 z m -20.149,-43.811 c 3.281,-1.171 6.794,-2.265 10.778,-2.265 7.028,0 9.371,4.608 9.371,9.137 v 5.311 c -3.671,-2.421 -6.17,-3.437 -9.606,-3.437 -7.184,0 -14.292,6.092 -14.292,18.587 0,17.025 8.982,21.788 17.728,21.788 5.623,0 11.168,-1.873 11.168,-1.873 v -40.844 c 0,-7.81 -5.155,-13.511 -14.291,-13.511 -4.687,0 -8.435,0.859 -11.559,1.719 l 0.703,5.388" />
      </g>
      <g
         transform="translate(373.952,108.411)"
         id="g853">
        <path
           inkscape:connector-curvature="0"
           id="path855"
           style="fill:#231f20;fill-opacity:1;fill-rule:nonzero;stroke:none"
           d="M 0,0 H 5.076 V -39.594 H 0 Z M -0.468,14.525 H 5.545 V 7.5748 h -6.013 z" />
      </g>
      <g
         transform="translate(391.132,103.804)"
         id="g857">
        <path
           inkscape:connector-curvature="0"
           id="path859"
           style="fill:#231f20;fill-opacity:1;fill-rule:nonzero;stroke:none"
           d="m 0,0 h -6.248 v 4.607 h 6.326 v 8.2 l 4.92,1.796 V 4.607 h 8.201 V 0 H 4.998 v -24.756 c 0,-3.593 1.718,-5.936 5.233,-5.936 1.093,0 2.264,0.235 3.513,0.782 l 0.704,-5.077 C 12.964,-35.377 11.48,-35.533 9.996,-35.533 4.451,-35.533 0,-31.941 0,-25.381 V 0" />
      </g>
      <g
         transform="translate(431.743,88.263)"
         id="g861">
        <path
           inkscape:connector-curvature="0"
           id="path863"
           style="fill:#231f20;fill-opacity:1;fill-rule:nonzero;stroke:none"
           d="m 0,0 c 0,0 -2.187,0.156 -5.545,0.078 -7.185,-0.156 -11.636,-2.968 -11.636,-8.277 0,-4.296 3.279,-7.186 7.574,-7.186 3.124,0 5.936,1.328 9.607,4.998 z m 0.389,-14.916 c -3.904,-4.061 -7.34,-5.311 -10.698,-5.311 -5.467,0 -11.948,3.984 -11.948,12.261 0,9.528 8.824,12.339 17.024,12.573 C -2.11,4.685 0,4.529 0,4.529 v 3.905 c 0,4.608 -1.797,7.654 -8.122,7.654 -4.373,0 -7.732,-1.094 -11.09,-2.187 l -0.702,5.233 c 3.201,0.858 6.715,1.795 11.792,1.795 8.278,0 13.198,-3.983 13.198,-11.558 V -19.446 H 1.171 l -0.782,4.53" />
      </g>
      <g
         transform="translate(445.879,123.952)"
         id="g865">
        <path
           inkscape:connector-curvature="0"
           id="path867"
           style="fill:#231f20;fill-opacity:1;fill-rule:nonzero;stroke:none"
           d="m 0,0 h 4.998 v -44.904 c 0,-3.593 1.718,-5.936 4.998,-5.936 1.093,0 2.187,0.313 3.124,0.625 l 0.703,-4.92 c -1.484,-0.39 -2.812,-0.546 -4.295,-0.546 C 4.53,-55.681 0,-52.401 0,-45.529 V 0" />
      </g>
      <g
         transform="translate(267.506,108.14)"
         id="g869">
        <path
           inkscape:connector-curvature="0"
           id="path871"
           style="fill:#00aeef;fill-opacity:1;fill-rule:nonzero;stroke:none"
           d="m 0,0 c 0,-4.586 -3.717,-8.303 -8.303,-8.303 -4.586,0 -8.304,3.717 -8.304,8.303 0,4.586 3.718,8.304 8.304,8.304 C -3.717,8.304 0,4.586 0,0" />
      </g>
      <g
         transform="translate(267.506,76.119)"
         id="g873">
        <path
           inkscape:connector-curvature="0"
           id="path875"
           style="fill:#00aeef;fill-opacity:1;fill-rule:nonzero;stroke:none"
           d="m 0,0 c 0,-4.586 -3.717,-8.304 -8.303,-8.304 -4.586,0 -8.304,3.718 -8.304,8.304 0,4.586 3.718,8.303 8.304,8.303 C -3.717,8.303 0,4.586 0,0" />
      </g>
    </g>
  </g>
</svg>
